<svg xmlns="http://www.w3.org/2000/svg" xmlns:xlink="http://www.w3.org/1999/xlink" width="114.961" height="109.087" viewBox="0 0 114.961 109.087">
  <defs>
    <clipPath id="clip-path">
      <rect id="Rectangle_147" data-name="Rectangle 147" width="114.961" height="109.087" transform="translate(0 0)" fill="#fff"/>
    </clipPath>
  </defs>
  <g id="Group_148" data-name="Group 148" transform="translate(0 0)" clip-path="url(#clip-path)">
    <path id="Path_49" data-name="Path 49" d="M42.378,44.079V16.406A8.658,8.658,0,0,0,33.9,7.6a8.651,8.651,0,0,0-8.481,8.649L17.363,63.3a14.6,14.6,0,0,1-6.9,10.194L0,79.662l1.776,3.015,10.463-6.166a18.1,18.1,0,0,0,8.574-12.62L28.888,16.7a1.817,1.817,0,0,0,.025-.3A5.157,5.157,0,0,1,33.9,11.1a5.157,5.157,0,0,1,4.982,5.305V43.332a8.551,8.551,0,0,0-1.08-.077,8.437,8.437,0,0,0-8.427,8.428v23.8h3.5v-23.8a4.927,4.927,0,1,1,9.854,0V77.258c0,6.8,0,8.029-5.6,10.352-2.52,1.047-6.72,1.433-10.095,1.744-.763.071-1.482.137-2.13.206l-4.177.446a1.764,1.764,0,0,0-.609.181L1.245,99.8l1.588,3.119,18.585-9.466,3.856-.413c.632-.067,1.334-.132,2.08-.2,3.61-.333,8.1-.747,11.115-2,7.756-3.22,7.756-6.468,7.756-13.585V51.431a8.8,8.8,0,0,0-3.847-7.352" fill="#fff"/>
    <path id="Path_50" data-name="Path 50" d="M114.961,85.747,94.4,75.456,78.115,8.935a1.751,1.751,0,0,0-1.7-1.334h-11.4a1.751,1.751,0,0,0-1.75,1.75v33.9H58.336a1.75,1.75,0,0,0-1.75,1.75V80.726h.055c-.02.367-.055.729-.055,1.1A19.359,19.359,0,0,0,84.41,99.282L104,109.087l1.566-3.13L87.9,97.114a19.517,19.517,0,0,0,5.28-6.315l16.452,8.05,1.538-3.144L94.528,87.562a19.4,19.4,0,0,0,.761-7.747l18.106,9.062ZM85.448,53.612,88.8,67.286A18.981,18.981,0,0,0,73.44,62.61V54.04H85.448ZM66.763,11.1h8.279l4.68,19.117H66.763Zm0,22.617H80.579L84.7,50.54H73.44V45.005a1.75,1.75,0,0,0-1.75-1.75H66.763ZM60.086,46.755H69.94V63.4a19.477,19.477,0,0,0-9.854,7.341Zm15.9,50.976A15.927,15.927,0,1,1,90.7,87.847l-.687,1.4.023.011A15.913,15.913,0,0,1,75.99,97.731" fill="#fff"/>
    <path id="Path_51" data-name="Path 51" d="M75.99,73.456a8.371,8.371,0,1,0,8.371,8.371,8.38,8.38,0,0,0-8.371-8.371m0,13.242a4.871,4.871,0,1,1,4.871-4.871A4.876,4.876,0,0,1,75.99,86.7" fill="#fff"/>
    <rect id="Rectangle_141" data-name="Rectangle 141" width="3.5" height="13.634" transform="translate(3.125 13.23) rotate(-73.071)" fill="#fff"/>
    <rect id="Rectangle_142" data-name="Rectangle 142" width="3.5" height="9.651" transform="translate(10.026 2.86) rotate(-54.812)" fill="#fff"/>
    <rect id="Rectangle_143" data-name="Rectangle 143" width="9.652" height="3.5" transform="translate(4.098 22.339) rotate(-1.33)" fill="#fff"/>
    <rect id="Rectangle_144" data-name="Rectangle 144" width="13.634" height="3.5" transform="translate(88.069 13.852) rotate(-16.929)" fill="#fff"/>
    <rect id="Rectangle_145" data-name="Rectangle 145" width="9.651" height="3.5" transform="matrix(0.817, -0.576, 0.576, 0.817, 85.325, 5.562)" fill="#fff"/>
    <rect id="Rectangle_146" data-name="Rectangle 146" width="3.5" height="9.652" transform="translate(91.428 25.614) rotate(-88.674)" fill="#fff"/>
  </g>
</svg>
